<svg width="1024" height="768" xmlns="http://www.w3.org/2000/svg" viewBox="0 0 1024 768">

      <defs>
        <linearGradient id="skyGradient" x1="0%" y1="0%" x2="0%" y2="100%">
          <stop offset="0%" style="stop-color:#B0C4DE;stop-opacity:1" />
          <stop offset="100%" style="stop-color:#fdffff;stop-opacity:1" />
        </linearGradient>
        <linearGradient id="groundGradient" x1="0%" y1="0%" x2="0%" y2="100%">
          <stop offset="0%" style="stop-color:#E0FFFF;stop-opacity:1" />
          <stop offset="100%" style="stop-color:#adcccc;stop-opacity:1" />
        </linearGradient>
      </defs>
    <rect x="0" y="0" width="1024" height="500" fill="url(#skyGradient)"/>
<circle cx="850" cy="150" r="70" fill="#FFA07A" opacity="0.8"/>
<circle cx="850" cy="150" r="60" fill="#ffd3ad"/>
<rect x="0" y="500" width="1024" height="268" fill="url(#groundGradient)"/>

          <!-- 둥근 나무 -->
          <rect x="151" y="420" width="35" height="120" fill="#654321" rx="8"/>
          <rect x="156" y="430" width="25" height="100" fill="#8b6947" rx="6"/>
          <circle cx="169" cy="395" r="65" fill="#2F4F4F" opacity="0.9"/>
          <circle cx="136" cy="430" r="55" fill="#153535" opacity="0.8"/>
          <circle cx="201" cy="430" r="55" fill="#153535" opacity="0.8"/>
          <circle cx="169" cy="410" r="50" fill="#628282" opacity="0.7"/>
        
          <!-- 침엽수 -->
          <rect x="411" y="450" width="25" height="110" fill="#8B4513" rx="5"/>
          <path d="M 423 380 L 371 430 L 476 430 Z" fill="#2F4F4F"/>
          <path d="M 423 410 L 381 450 L 466 450 Z" fill="#153535"/>
          <path d="M 423 440 L 391 470 L 456 470 Z" fill="#092929"/>
        
          <!-- 넓은 나무 -->
          <rect x="651" y="440" width="40" height="120" fill="#6B4423" rx="10"/>
          <ellipse cx="671" cy="400" rx="80" ry="60" fill="#2F4F4F" opacity="0.85"/>
          <ellipse cx="626" cy="435" rx="50" ry="45" fill="#092929" opacity="0.75"/>
          <ellipse cx="716" cy="435" rx="50" ry="45" fill="#092929" opacity="0.75"/>
          <ellipse cx="671" cy="425" rx="60" ry="50" fill="#496969" opacity="0.7"/>
        <circle cx="104" cy="650" r="8" fill="#9370DB"/>
<circle cx="93.63525491562422" cy="664.2658477444273" r="8" fill="#9370DB"/>
<circle cx="76.86474508437578" cy="658.8167787843871" r="8" fill="#9370DB"/>
<circle cx="76.86474508437578" cy="641.1832212156129" r="8" fill="#9370DB"/>
<circle cx="93.6352549156242" cy="635.7341522555727" r="8" fill="#9370DB"/>
<circle cx="89" cy="650" r="6" fill="#cc6d47"/>
<circle cx="284" cy="671" r="8" fill="#9370DB"/>
<circle cx="273.6352549156242" cy="685.2658477444273" r="8" fill="#9370DB"/>
<circle cx="256.8647450843758" cy="679.8167787843871" r="8" fill="#9370DB"/>
<circle cx="256.8647450843758" cy="662.1832212156129" r="8" fill="#9370DB"/>
<circle cx="273.6352549156242" cy="656.7341522555727" r="8" fill="#9370DB"/>
<circle cx="269" cy="671" r="6" fill="#cc6d47"/>
<circle cx="464" cy="692" r="8" fill="#9370DB"/>
<circle cx="453.6352549156242" cy="706.2658477444273" r="8" fill="#9370DB"/>
<circle cx="436.8647450843758" cy="700.8167787843871" r="8" fill="#9370DB"/>
<circle cx="436.8647450843758" cy="683.1832212156129" r="8" fill="#9370DB"/>
<circle cx="453.6352549156242" cy="677.7341522555727" r="8" fill="#9370DB"/>
<circle cx="449" cy="692" r="6" fill="#cc6d47"/>
<circle cx="644" cy="663" r="8" fill="#9370DB"/>
<circle cx="633.6352549156242" cy="677.2658477444273" r="8" fill="#9370DB"/>
<circle cx="616.8647450843758" cy="671.8167787843871" r="8" fill="#9370DB"/>
<circle cx="616.8647450843758" cy="654.1832212156129" r="8" fill="#9370DB"/>
<circle cx="633.6352549156242" cy="648.7341522555727" r="8" fill="#9370DB"/>
<circle cx="629" cy="663" r="6" fill="#cc6d47"/>
<circle cx="824" cy="684" r="8" fill="#9370DB"/>
<circle cx="813.6352549156242" cy="698.2658477444273" r="8" fill="#9370DB"/>
<circle cx="796.8647450843758" cy="692.8167787843871" r="8" fill="#9370DB"/>
<circle cx="796.8647450843758" cy="675.1832212156129" r="8" fill="#9370DB"/>
<circle cx="813.6352549156242" cy="669.7341522555727" r="8" fill="#9370DB"/>
<circle cx="809" cy="684" r="6" fill="#cc6d47"/>
<circle cx="1004" cy="655" r="8" fill="#9370DB"/>
<circle cx="993.6352549156242" cy="669.2658477444273" r="8" fill="#9370DB"/>
<circle cx="976.8647450843758" cy="663.8167787843871" r="8" fill="#9370DB"/>
<circle cx="976.8647450843758" cy="646.1832212156129" r="8" fill="#9370DB"/>
<circle cx="993.6352549156242" cy="640.7341522555727" r="8" fill="#9370DB"/>
<circle cx="989" cy="655" r="6" fill="#cc6d47"/>
<circle cx="1184" cy="676" r="8" fill="#9370DB"/>
<circle cx="1173.6352549156243" cy="690.2658477444273" r="8" fill="#9370DB"/>
<circle cx="1156.8647450843757" cy="684.8167787843871" r="8" fill="#9370DB"/>
<circle cx="1156.8647450843757" cy="667.1832212156129" r="8" fill="#9370DB"/>
<circle cx="1173.6352549156243" cy="661.7341522555727" r="8" fill="#9370DB"/>
<circle cx="1169" cy="676" r="6" fill="#cc6d47"/>
<circle cx="1364" cy="697" r="8" fill="#9370DB"/>
<circle cx="1353.6352549156243" cy="711.2658477444273" r="8" fill="#9370DB"/>
<circle cx="1336.8647450843757" cy="705.8167787843871" r="8" fill="#9370DB"/>
<circle cx="1336.8647450843757" cy="688.1832212156129" r="8" fill="#9370DB"/>
<circle cx="1353.6352549156243" cy="682.7341522555727" r="8" fill="#9370DB"/>
<circle cx="1349" cy="697" r="6" fill="#cc6d47"/>

      <!-- 토끼 3 -->
      <g id="rabbit-3">
        <!-- 그림자 -->
        <ellipse cx="200" cy="610" rx="45" ry="10" fill="rgba(0,0,0,0.2)"/>

        <!-- 몸통 -->
        <ellipse cx="200" cy="500" rx="55" ry="75" fill="#9370DB"/>
        <ellipse cx="200" cy="510" rx="40" ry="55" fill="#e0bdff"/>

        <!-- 머리 -->
        <circle cx="200" cy="430" r="50" fill="#9370DB"/>
        <ellipse cx="200" cy="445" rx="35" ry="40" fill="#e0bdff"/>

        <!-- 긴 귀 -->
        <ellipse cx="172" cy="385" rx="18" ry="45" fill="#9370DB"/>
        <ellipse cx="172" cy="390" rx="12" ry="35" fill="#FFB6C1"/>
        <ellipse cx="228" cy="385" rx="18" ry="45" fill="#9370DB"/>
        <ellipse cx="228" cy="390" rx="12" ry="35" fill="#FFB6C1"/>

        <!-- 눈 -->
        <circle cx="182" cy="425" r="6" fill="#000"/>
        <circle cx="184" cy="423" r="2" fill="#FFF"/>
        <circle cx="218" cy="425" r="6" fill="#000"/>
        <circle cx="220" cy="423" r="2" fill="#FFF"/>

        <!-- 코 -->
        <ellipse cx="200" cy="440" rx="5" ry="4" fill="#FF69B4"/>

        <!-- 입 -->
        <path d="M 192 442 Q 200 448 208 442"
              stroke="#000" stroke-width="2" fill="none"/>

        <!-- 볼 -->
        <circle cx="175" cy="440" r="8" fill="#FFB6C1" opacity="0.5"/>
        <circle cx="225" cy="440" r="8" fill="#FFB6C1" opacity="0.5"/>

        <!-- 팔 -->
        <ellipse cx="140" cy="510" rx="15" ry="45" fill="#9370DB" transform="rotate(-25 140 510)"/>
        <ellipse cx="260" cy="510" rx="15" ry="45" fill="#9370DB" transform="rotate(25 260 510)"/>

        <!-- 다리 -->
        <ellipse cx="172" cy="580" rx="18" ry="50" fill="#9370DB"/>
        <ellipse cx="228" cy="580" rx="18" ry="50" fill="#9370DB"/>

        <!-- 발 -->
        <ellipse cx="172" cy="615" rx="22" ry="15" fill="#9370DB"/>
        <ellipse cx="228" cy="615" rx="22" ry="15" fill="#9370DB"/>

        <!-- 꼬리 -->
        <circle cx="200" cy="565" r="18" fill="#e0bdff"/>
      </g>
    
      <!-- 나비 4 -->
      <g id="butterfly-4">
        <!-- 왼쪽 위 날개 -->
        <ellipse cx="455" cy="410" rx="35" ry="45" fill="#9370DB" opacity="0.8"/>
        <ellipse cx="455" cy="410" rx="25" ry="35" fill="#b996ff"/>
        <circle cx="455" cy="415" r="8" fill="#FFD700"/>

        <!-- 오른쪽 위 날개 -->
        <ellipse cx="505" cy="410" rx="35" ry="45" fill="#9370DB" opacity="0.8"/>
        <ellipse cx="505" cy="410" rx="25" ry="35" fill="#b996ff"/>
        <circle cx="505" cy="415" r="8" fill="#FFD700"/>

        <!-- 왼쪽 아래 날개 -->
        <ellipse cx="460" cy="455" rx="30" ry="40" fill="#9370DB" opacity="0.8"/>
        <ellipse cx="460" cy="455" rx="20" ry="30" fill="#b996ff"/>

        <!-- 오른쪽 아래 날개 -->
        <ellipse cx="500" cy="455" rx="30" ry="40" fill="#9370DB" opacity="0.8"/>
        <ellipse cx="500" cy="455" rx="20" ry="30" fill="#b996ff"/>

        <!-- 몸통 -->
        <ellipse cx="480" cy="430" rx="6" ry="35" fill="#000"/>

        <!-- 머리 -->
        <circle cx="480" cy="405" r="8" fill="#000"/>

        <!-- 더듬이 -->
        <path d="M 477 400 Q 472 390 470 385" stroke="#000" stroke-width="2" fill="none"/>
        <circle cx="470" cy="385" r="3" fill="#000"/>
        <path d="M 483 400 Q 488 390 490 385" stroke="#000" stroke-width="2" fill="none"/>
        <circle cx="490" cy="385" r="3" fill="#000"/>
      </g>
    <ellipse cx="0" cy="760" rx="40" ry="15" fill="#adcccc" opacity="0.6"/>
<ellipse cx="123" cy="760" rx="40" ry="15" fill="#adcccc" opacity="0.6"/>
<ellipse cx="246" cy="760" rx="40" ry="15" fill="#adcccc" opacity="0.6"/>
<ellipse cx="319" cy="760" rx="40" ry="15" fill="#adcccc" opacity="0.6"/>
<ellipse cx="442" cy="760" rx="40" ry="15" fill="#adcccc" opacity="0.6"/>
<ellipse cx="515" cy="760" rx="40" ry="15" fill="#adcccc" opacity="0.6"/>
<ellipse cx="638" cy="760" rx="40" ry="15" fill="#adcccc" opacity="0.6"/>
<ellipse cx="711" cy="760" rx="40" ry="15" fill="#adcccc" opacity="0.6"/>
<ellipse cx="834" cy="760" rx="40" ry="15" fill="#adcccc" opacity="0.6"/>
<ellipse cx="907" cy="760" rx="40" ry="15" fill="#adcccc" opacity="0.6"/>
</svg>