<svg xmlns="http://www.w3.org/2000/svg" viewBox="0 0 512 512" width="512" height="512">
  <g>
    <!-- Body (Sleek black fur) -->
    <path d="M256,200 C300,200 340,240 340,280 C340,320 300,360 256,360 C212,360 172,320 172,280 C172,240 212,200 256,200 Z" fill="#000000" stroke="#000000" stroke-width="3"/>
    <!-- Legs (Front and Back in walking pose) -->
    <path d="M220,280 L200,340 C200,340 190,360 190,360" fill="none" stroke="#000000" stroke-width="3"/>
    <path d="M292,280 L312,340 C312,340 322,360 322,360" fill="none" stroke="#000000" stroke-width="3"/>
    <path d="M240,280 L220,340 C220,340 210,360 210,360" fill="none" stroke="#000000" stroke-width="3"/>
    <path d="M272,280 L292,340 C292,340 302,360 302,360" fill="none" stroke="#000000" stroke-width="3"/>
    <!-- Tail (Swaying dynamically) -->
    <path d="M172,280 C150,300 130,320 130,340 C130,360 150,380 170,380" fill="none" stroke="#000000" stroke-width="3"/>
    <!-- Head (Rounded with big proportions) -->
    <circle cx="256" cy="160" r="80" fill="#000000" stroke="#000000" stroke-width="3"/>
    <!-- Ears (Rounded and perky) -->
    <path d="M216,100 C200,100 190,120 190,140 C190,160 200,180 216,180" fill="#000000" stroke="#000000" stroke-width="3"/>
    <path d="M296,100 C312,100 322,120 322,140 C322,160 312,180 296,180" fill="#000000" stroke="#000000" stroke-width="3"/>
    <!-- Eyes (Large, glowing yellow with sparkle) -->
    <circle cx="236" cy="140" r="20" fill="#FFD700" stroke="#000000" stroke-width="3"/>
    <circle cx="276" cy="140" r="20" fill="#FFD700" stroke="#000000" stroke-width="3"/>
    <circle cx="240" cy="135" r="5" fill="#FFFFFF" stroke="none"/>
    <circle cx="280" cy="135" r="5" fill="#FFFFFF" stroke="none"/>
    <!-- Mouth (Subtle smile) -->
    <path d="M256,170 C250,175 262,175 256,170" fill="none" stroke="#000000" stroke-width="3"/>
    <!-- Accessory (Collar with vibrant color and pattern) -->
    <path d="M220,200 C220,210 292,210 292,200" fill="none" stroke="#FF6B6B" stroke-width="3"/>
    <circle cx="256" cy="205" r="5" fill="#90EE90" stroke="#000000" stroke-width="2"/>
    <!-- Clothing (Scarf with texture, using vibrant color) -->
    <path d="M230,200 C210,220 200,240 200,260 C200,280 220,300 240,300" fill="#87CEEB" stroke="#000000" stroke-width="3" opacity="0.8"/>
    <path d="M220,240 L240,240" fill="none" stroke="#4ECDC4" stroke-width="2"/>
    <path d="M210,260 L230,260" fill="none" stroke="#4ECDC4" stroke-width="2"/>
  </g>
</svg>