<svg xmlns="http://www.w3.org/2000/svg" viewBox="0 0 512 512" style="background: transparent;">
  <g id="Character_깜깜이">
    <!-- Body (Black fur blending into shadows) -->
    <path d="M256,300 C200,300 150,250 150,200 C150,150 200,120 256,120 C312,120 362,150 362,200 C362,250 312,300 256,300 Z" fill="#000000" stroke="#000000" stroke-width="3" opacity="0.8"/>
    <!-- Tail (Low, blending into shadow) -->
    <path d="M150,200 C120,200 100,230 100,260 C100,290 120,320 150,320" fill="none" stroke="#000000" stroke-width="3" opacity="0.6"/>
    <!-- Head (Big head for cute proportions) -->
    <circle cx="256" cy="150" r="80" fill="#000000" stroke="#000000" stroke-width="3" opacity="0.9"/>
    <!-- Clothing (Vest with pattern, vibrant color) -->
    <path d="M220,180 C200,180 190,220 190,250 C190,280 200,300 220,300 C240,300 250,280 250,250 C250,220 240,180 220,180 Z" fill="#87CEEB" stroke="#000000" stroke-width="3"/>
    <path d="M220,200 L240,200" stroke="#4ECDC4" stroke-width="2"/>
    <path d="M220,220 L240,220" stroke="#4ECDC4" stroke-width="2"/>
    <!-- Accessory (Hat with vibrant color) -->
    <path d="M230,80 C200,80 180,110 180,140 C180,150 190,160 200,160 C230,160 250,140 250,110 C250,90 240,80 230,80 Z" fill="#FF6B6B" stroke="#000000" stroke-width="3"/>
    <circle cx="215" cy="110" r="5" fill="#FFD700"/>
    <!-- Eyes (Glowing yellow, large and expressive) -->
    <g id="Eyes">
      <ellipse cx="230" cy="130" rx="20" ry="30" fill="#FFD700" stroke="#000000" stroke-width="3"/>
      <ellipse cx="270" cy="130" rx="20" ry="30" fill="#FFD700" stroke="#000000" stroke-width="3"/>
      <!-- Eye highlights for Disney sparkle -->
      <circle cx="235" cy="120" r="5" fill="#FFFFFF" opacity="0.8"/>
      <circle cx="275" cy="120" r="5" fill="#FFFFFF" opacity="0.8"/>
      <circle cx="240" cy="125" r="3" fill="#FFFFFF" opacity="0.6"/>
      <circle cx="280" cy="125" r="3" fill="#FFFFFF" opacity="0.6"/>
    </g>
    <!-- Mouth (Sneaky expression) -->
    <path d="M240,160 C245,165 255,165 260,160" fill="none" stroke="#000000" stroke-width="3"/>
    <!-- Legs (Crouching pose) -->
    <path d="M210,280 C200,280 190,300 190,320 C190,340 200,350 210,350" fill="#000000" stroke="#000000" stroke-width="3" opacity="0.8"/>
    <path d="M260,280 C270,280 280,300 280,320 C280,340 270,350 260,350" fill="#000000" stroke="#000000" stroke-width="3" opacity="0.8"/>
  </g>
</svg>