<svg xmlns="http://www.w3.org/2000/svg" viewBox="0 0 512 512" width="512" height="512">
  <g>
    <!-- Body -->
    <path d="M256,300 C200,300 150,250 150,180 C150,110 200,80 256,80 C312,80 362,110 362,180 C362,250 312,300 256,300 Z" fill="#87CEEB" stroke="#000000" stroke-width="3"/>
    <!-- Tail -->
    <path d="M150,180 C120,180 100,220 100,260 C100,300 120,340 150,340" fill="none" stroke="#87CEEB" stroke-width="10" stroke-linecap="round"/>
    <!-- Head -->
    <circle cx="256" cy="120" r="100" fill="#87CEEB" stroke="#000000" stroke-width="3"/>
    <!-- Eyes -->
    <g>
      <circle cx="220" cy="100" r="30" fill="#FFD700" stroke="#000000" stroke-width="3"/>
      <circle cx="292" cy="100" r="30" fill="#FFD700" stroke="#000000" stroke-width="3"/>
      <circle cx="220" cy="90" r="8" fill="#FFFFFF" stroke="#000000" stroke-width="1"/>
      <circle cx="292" cy="90" r="8" fill="#FFFFFF" stroke="#000000" stroke-width="1"/>
    </g>
    <!-- Mouth (Speaking) -->
    <path d="M230,140 C230,160 282,160 282,140" fill="none" stroke="#000000" stroke-width="3"/>
    <path d="M240,145 L272,145" fill="none" stroke="#FF6B6B" stroke-width="2"/>
    <!-- Clothing (Shirt with pattern) -->
    <path d="M200,180 C200,220 312,220 312,180 L312,250 C312,270 200,270 200,250 Z" fill="#90EE90" stroke="#000000" stroke-width="3"/>
    <circle cx="256" cy="210" r="5" fill="#4ECDC4" stroke="#000000" stroke-width="1"/>
    <circle cx="230" cy="200" r="5" fill="#4ECDC4" stroke="#000000" stroke-width="1"/>
    <circle cx="282" cy="200" r="5" fill="#4ECDC4" stroke="#000000" stroke-width="1"/>
    <!-- Accessory (Hat) -->
    <path d="M200,80 C200,60 312,60 312,80 L312,40 C312,20 200,20 200,40 Z" fill="#FF6B6B" stroke="#000000" stroke-width="3"/>
    <circle cx="256" cy="40" r="10" fill="#FFD700" stroke="#000000" stroke-width="2"/>
    <!-- Arms -->
    <path d="M200,180 C180,180 160,220 160,240" fill="none" stroke="#87CEEB" stroke-width="8" stroke-linecap="round"/>
    <path d="M312,180 C332,180 352,220 352,240" fill="none" stroke="#87CEEB" stroke-width="8" stroke-linecap="round"/>
    <!-- Legs -->
    <path d="M220,250 C200,250 200,290 220,290" fill="none" stroke="#87CEEB" stroke-width="8" stroke-linecap="round"/>
    <path d="M292,250 C312,250 312,290 292,290" fill="none" stroke="#87CEEB" stroke-width="8" stroke-linecap="round"/>
  </g>
</svg>