<svg xmlns="http://www.w3.org/2000/svg" viewBox="0 0 512 512" width="512" height="512">
  <g>
    <!-- Body Outline and Fill -->
    <path d="M256,300 C220,300 190,270 190,230 C190,190 220,160 256,160 C292,160 322,190 322,230 C322,270 292,300 256,300 Z" fill="#FFD700" stroke="#000000" stroke-width="3"/>
    
    <!-- Legs (Dynamic Running Motion) -->
    <path d="M220,300 L200,360 C195,375 190,390 185,405" fill="none" stroke="#000000" stroke-width="3"/>
    <path d="M292,300 L312,360 C317,375 322,390 327,405" fill="none" stroke="#000000" stroke-width="3"/>
    <path d="M185,405 C180,415 175,425 170,435" fill="none" stroke="#000000" stroke-width="3"/>
    <path d="M327,405 C332,415 337,425 342,435" fill="none" stroke="#000000" stroke-width="3"/>
    
    <!-- Arms (Swinging Dynamically) -->
    <path d="M220,220 L180,260 C170,275 160,290 150,305" fill="none" stroke="#000000" stroke-width="3"/>
    <path d="M292,220 L332,260 C342,275 352,290 362,305" fill="none" stroke="#000000" stroke-width="3"/>
    
    <!-- Backpack (Bouncing) -->
    <path d="M230,180 C210,180 200,200 200,220 C200,240 210,260 230,260 C250,260 270,240 270,220 C270,200 250,180 230,180 Z" fill="#90EE90" stroke="#000000" stroke-width="3"/>
    <path d="M210,200 L250,200" fill="none" stroke="#000000" stroke-width="2"/>
    <path d="M210,240 L250,240" fill="none" stroke="#000000" stroke-width="2"/>
    
    <!-- Head Outline and Fill -->
    <path d="M256,160 C300,160 336,124 336,80 C336,36 300,0 256,0 C212,0 176,36 176,80 C176,124 212,160 256,160 Z" fill="#FFD700" stroke="#000000" stroke-width="3"/>
    
    <!-- Red Cap (Slightly Askew) -->
    <path d="M200,60 C180,60 160,40 160,20 C160,0 180,0 200,0 C220,0 240,20 240,40 C240,60 220,60 200,60 Z" fill="#FF6B6B" stroke="#000000" stroke-width="3" transform="rotate(5, 200, 30)"/>
    <path d="M180,20 L220,20" fill="none" stroke="#000000" stroke-width="2"/>
    
    <!-- Hair (Peeking Under Cap) -->
    <path d="M180,80 C190,70 210,60 230,60 C250,60 270,70 280,80" fill="none" stroke="#000000" stroke-width="3"/>
    
    <!-- Face Features (Back View, Minimal Due to Angle) -->
    <path d="M200,100 C210,90 230,90 240,100" fill="none" stroke="#000000" stroke-width="2"/>
    
    <!-- Clothing Details (Texture on Shirt) -->
    <path d="M220,200 L292,200" fill="none" stroke="#4ECDC4" stroke-width="2"/>
    <path d="M220,240 L292,240" fill="none" stroke="#4ECDC4" stroke-width="2"/>
  </g>
</svg>