<svg xmlns="http://www.w3.org/2000/svg" viewBox="0 0 512 512" width="512" height="512">
  <g>
    <!-- Body Outline -->
    <path d="M256,300 C210,300 180,240 180,200 C180,160 210,120 256,120 C302,120 332,160 332,200 C332,240 302,300 256,300 Z" fill="#FFD700" stroke="#000000" stroke-width="3"/>
    <!-- Legs -->
    <path d="M220,300 L200,380 Q190,400 180,400 L160,400 L160,440 Q160,450 170,450 L200,450 Q210,450 220,440 L220,300 Z" fill="#90EE90" stroke="#000000" stroke-width="3"/>
    <path d="M292,300 L312,380 Q322,400 332,400 L352,400 L352,440 Q352,450 342,450 L312,450 Q302,450 292,440 L292,300 Z" fill="#90EE90" stroke="#000000" stroke-width="3"/>
    <!-- Arms -->
    <path d="M180,180 Q140,200 140,240 Q140,280 180,300 L200,300 Q210,300 220,290 L220,240 Q220,220 200,210 L180,180 Z" fill="#FFD700" stroke="#000000" stroke-width="3"/>
    <path d="M332,180 Q372,200 372,240 Q372,280 332,300 L312,300 Q302,300 292,290 L292,240 Q292,220 312,210 L332,180 Z" fill="#FFD700" stroke="#000000" stroke-width="3"/>
    <!-- Backpack -->
    <path d="M200,140 Q180,120 180,80 Q180,40 200,20 L312,20 Q332,40 332,80 Q332,120 312,140 L200,140 Z" fill="#4ECDC4" stroke="#000000" stroke-width="3"/>
    <path d="M220,40 L292,40 L292,120 L220,120 L220,40 Z" fill="#87CEEB" stroke="#000000" stroke-width="3"/>
    <!-- Head -->
    <circle cx="256" cy="100" r="80" fill="#FFD700" stroke="#000000" stroke-width="3"/>
    <!-- Red Cap -->
    <path d="M180,60 Q256,-20 332,60 L332,100 Q256,140 180,100 L180,60 Z" fill="#FF6B6B" stroke="#000000" stroke-width="3"/>
    <path d="M300,60 Q320,40 340,60" fill="none" stroke="#000000" stroke-width="3"/>
    <!-- Face Features -->
    <g>
      <!-- Eyes -->
      <circle cx="230" cy="80" r="20" fill="white" stroke="#000000" stroke-width="3"/>
      <circle cx="282" cy="80" r="20" fill="white" stroke="#000000" stroke-width="3"/>
      <circle cx="230" cy="80" r="10" fill="#000000"/>
      <circle cx="282" cy="80" r="10" fill="#000000"/>
      <circle cx="225" cy="75" r="3" fill="white" opacity="0.8"/>
      <circle cx="277" cy="75" r="3" fill="white" opacity="0.8"/>
      <!-- Eyebrows -->
      <path d="M220,60 Q230,50 240,60" fill="none" stroke="#000000" stroke-width="3"/>
      <path d="M272,60 Q282,50 292,60" fill="none" stroke="#000000" stroke-width="3"/>
      <!-- Mouth -->
      <path d="M240,110 Q256,130 272,110" fill="none" stroke="#000000" stroke-width="3"/>
    </g>
  </g>
</svg>