<svg xmlns="http://www.w3.org/2000/svg" viewBox="0 0 512 512" width="512" height="512">
  <g>
    <!-- Body Outline -->
    <path d="M256,150 C300,150 330,200 330,250 C330,300 300,350 256,350 C212,350 182,300 182,250 C182,200 212,150 256,150 Z" fill="#FFD700" stroke="#000000" stroke-width="3"/>
    <!-- Body Details -->
    <path d="M256,170 C290,170 310,210 310,250 C310,290 290,330 256,330 C222,330 202,290 202,250 C202,210 222,170 256,170 Z" fill="#FF6B6B" stroke="#000000" stroke-width="3"/>
    <!-- Head Outline -->
    <circle cx="256" cy="120" r="90" fill="#87CEEB" stroke="#000000" stroke-width="3"/>
    <!-- Hair -->
    <path d="M200,60 C180,40 220,20 240,40 C260,60 280,80 300,60 C320,40 340,60 320,100 C300,140 260,140 240,120 C220,100 220,80 200,60 Z" fill="#4ECDC4" stroke="#000000" stroke-width="3"/>
    <!-- Glasses -->
    <circle cx="230" cy="100" r="20" fill="#FF6B6B" stroke="#000000" stroke-width="3"/>
    <circle cx="280" cy="100" r="20" fill="#FF6B6B" stroke="#000000" stroke-width="3"/>
    <path d="M250,100 C255,95 260,95 265,100" fill="none" stroke="#000000" stroke-width="3"/>
    <!-- Face Features (Layered on Top) -->
    <g>
      <!-- Eyes Closed with Joy -->
      <path d="M220,110 C210,90 230,90 240,110" fill="none" stroke="#000000" stroke-width="3"/>
      <path d="M270,110 C260,90 280,90 290,110" fill="none" stroke="#000000" stroke-width="3"/>
      <!-- Smile -->
      <path d="M240,130 C250,150 260,150 270,130" fill="none" stroke="#000000" stroke-width="3"/>
    </g>
    <!-- Arm Holding Sketchbook -->
    <path d="M330,220 C350,240 350,280 330,300" fill="none" stroke="#000000" stroke-width="3"/>
    <!-- Sketchbook -->
    <rect x="310" y="290" width="40" height="60" rx="5" fill="#90EE90" stroke="#000000" stroke-width="3"/>
    <!-- Legs -->
    <path d="M240,350 C220,380 220,400 240,430" fill="none" stroke="#000000" stroke-width="3"/>
    <path d="M270,350 C290,380 290,400 270,430" fill="none" stroke="#000000" stroke-width="3"/>
  </g>
</svg>