<svg xmlns="http://www.w3.org/2000/svg" viewBox="0 0 512 512" style="background: transparent;">
  <g id="Character_지영">
    <!-- Body Outline and Base Color -->
    <path d="M256,150 C200,150 180,250 180,300 C180,350 200,400 256,400 C312,400 332,350 332,300 C332,250 312,150 256,150 Z" fill="#FFD700" stroke="#000000" stroke-width="3"/>
    
    <!-- Legs -->
    <path d="M220,320 L200,400 L180,400 L200,320 Z" fill="#90EE90" stroke="#000000" stroke-width="3"/>
    <path d="M292,320 L312,380 L332,380 L312,320 Z" fill="#90EE90" stroke="#000000" stroke-width="3"/>
    
    <!-- Sneakers -->
    <path d="M180,400 L160,410 L180,410 L200,400 Z" fill="#4ECDC4" stroke="#000000" stroke-width="3"/>
    <path d="M312,380 L332,390 L352,390 L332,380 Z" fill="#4ECDC4" stroke="#000000" stroke-width="3"/>
    
    <!-- Head -->
    <circle cx="256" cy="120" r="80" fill="#FFD700" stroke="#000000" stroke-width="3"/>
    
    <!-- Ponytail -->
    <path d="M176,80 Q136,40 176,0 Q216,40 176,80" fill="#FF6B6B" stroke="#000000" stroke-width="3"/>
    
    <!-- Glasses -->
    <circle cx="230" cy="110" r="15" fill="#FF6B6B" stroke="#000000" stroke-width="3"/>
    <circle cx="270" cy="110" r="15" fill="#FF6B6B" stroke="#000000" stroke-width="3"/>
    <path d="M245,110 L255,110" stroke="#000000" stroke-width="3"/>
    <circle cx="225" cy="105" r="3" fill="white" opacity="0.8"/>
    <circle cx="265" cy="105" r="3" fill="white" opacity="0.8"/>
    
    <!-- Eyes -->
    <g id="Eyes">
      <circle cx="230" cy="115" r="10" fill="white" stroke="#000000" stroke-width="3"/>
      <circle cx="270" cy="115" r="10" fill="white" stroke="#000000" stroke-width="3"/>
      <circle cx="230" cy="115" r="5" fill="#87CEEB"/>
      <circle cx="270" cy="115" r="5" fill="#87CEEB"/>
      <circle cx="227" cy="112" r="2" fill="white"/>
      <circle cx="267" cy="112" r="2" fill="white"/>
    </g>
    
    <!-- Mouth -->
    <path d="M240,140 Q256,150 272,140" fill="none" stroke="#000000" stroke-width="3"/>
    
    <!-- Nose -->
    <circle cx="250" cy="130" r="3" fill="#FF6B6B" stroke="#000000" stroke-width="3"/>
    
    <!-- Arms -->
    <path d="M200,200 L180,280 L200,280" fill="#FFD700" stroke="#000000" stroke-width="3"/>
    <path d="M312,200 L332,240 L352,240" fill="#FFD700" stroke="#000000" stroke-width="3"/>
    
    <!-- Sketchbook -->
    <rect x="170" y="260" width="40" height="60" rx="5" ry="5" fill="#90EE90" stroke="#000000" stroke-width="3"/>
    <path d="M180,270 L200,270" stroke="#000000" stroke-width="2"/>
    <path d="M180,280 L200,280" stroke="#000000" stroke-width="2"/>
    <path d="M180,290 L200,290" stroke="#000000" stroke-width="2"/>
  </g>
</svg>