<svg xmlns="http://www.w3.org/2000/svg" viewBox="0 0 512 512" width="512" height="512">
  <g>
    <!-- Body Outline -->
    <path d="M256,200 C200,200 160,280 160,320 C160,360 200,400 256,400 C312,400 352,360 352,320 C352,280 312,200 256,200 Z" fill="#90EE90" stroke="#000000" stroke-width="3"/>
    <!-- Shirt -->
    <path d="M180,240 C180,280 220,340 256,340 C292,340 332,280 332,240 L332,200 C332,160 292,120 256,120 C220,120 180,160 180,200 Z" fill="#87CEEB" stroke="#000000" stroke-width="3"/>
    <!-- Head -->
    <circle cx="256" cy="100" r="80" fill="#FFD700" stroke="#000000" stroke-width="3"/>
    <!-- Ponytail -->
    <path d="M320,80 C340,60 360,40 360,20 C360,0 340,0 320,20 C300,40 300,60 320,80 Z" fill="#4ECDC4" stroke="#000000" stroke-width="3"/>
    <!-- Legs -->
    <path d="M200,380 L180,460 L160,460 L180,380 Z" fill="#90EE90" stroke="#000000" stroke-width="3"/>
    <path d="M312,380 L332,460 L352,460 L332,380 Z" fill="#90EE90" stroke="#000000" stroke-width="3"/>
    <!-- Sneakers Left -->
    <path d="M160,460 C140,460 140,480 160,480 C180,480 200,460 200,460 Z" fill="#90EE90" stroke="#000000" stroke-width="3"/>
    <!-- Sneakers Right -->
    <path d="M312,460 C292,460 292,480 312,480 C332,480 352,460 352,460 Z" fill="#90EE90" stroke="#000000" stroke-width="3"/>
    <!-- Arms Left -->
    <path d="M180,220 C160,240 140,260 140,300 C140,340 160,360 180,340 Z" fill="#FFD700" stroke="#000000" stroke-width="3"/>
    <!-- Arms Right -->
    <path d="M332,220 C352,240 372,260 372,300 C372,340 352,360 332,340 Z" fill="#FFD700" stroke="#000000" stroke-width="3"/>
    <!-- Hands Clapping -->
    <circle cx="180" cy="340" r="20" fill="#FFD700" stroke="#000000" stroke-width="3"/>
    <circle cx="332" cy="340" r="20" fill="#FFD700" stroke="#000000" stroke-width="3"/>
    <!-- Glasses -->
    <circle cx="230" cy="90" r="20" fill="#FF6B6B" stroke="#000000" stroke-width="3"/>
    <circle cx="282" cy="90" r="20" fill="#FF6B6B" stroke="#000000" stroke-width="3"/>
    <path d="M250,90 L262,90" stroke="#000000" stroke-width="3"/>
    <!-- Eyes -->
    <circle cx="230" cy="90" r="10" fill="#FFFFFF" stroke="#000000" stroke-width="3"/>
    <circle cx="282" cy="90" r="10" fill="#FFFFFF" stroke="#000000" stroke-width="3"/>
    <circle cx="230" cy="90" r="5" fill="#000000"/>
    <circle cx="282" cy="90" r="5" fill="#000000"/>
    <!-- Eye Sparkle -->
    <circle cx="226" cy="86" r="2" fill="#FFFFFF"/>
    <circle cx="278" cy="86" r="2" fill="#FFFFFF"/>
    <!-- Mouth Laughing -->
    <path d="M240,120 C240,140 272,140 272,120" fill="none" stroke="#000000" stroke-width="3"/>
    <!-- Shirt Pattern (Simple Stripes) -->
    <line x1="180" y1="220" x2="332" y2="220" stroke="#4ECDC4" stroke-width="3"/>
    <line x1="180" y1="260" x2="332" y2="260" stroke="#4ECDC4" stroke-width="3"/>
    <line x1="180" y1="300" x2="332" y2="300" stroke="#4ECDC4" stroke-width="3"/>
  </g>
</svg>