<svg xmlns="http://www.w3.org/2000/svg" viewBox="0 0 512 512" width="512" height="512">
  <g>
    <!-- Body Outline and Fill -->
    <path d="M256,200 C300,200 340,240 340,300 C340,360 300,400 256,400 C212,400 172,360 172,300 C172,240 212,200 256,200 Z" fill="#FFD700" stroke="#000000" stroke-width="3"/>
    <!-- Arms (Dynamic Running Motion) -->
    <path d="M340,280 L380,240 Q400,220 420,240" fill="none" stroke="#000000" stroke-width="3"/>
    <path d="M172,280 L132,240 Q112,220 92,240" fill="none" stroke="#000000" stroke-width="3"/>
    <!-- Legs (Running with Green Sneakers) -->
    <path d="M220,400 L200,460 L180,460 Q170,460 170,440" fill="#90EE90" stroke="#000000" stroke-width="3"/>
    <path d="M292,400 L312,460 L332,460 Q342,460 342,440" fill="#90EE90" stroke="#000000" stroke-width="3"/>
    <!-- Dust Kicked Up by Sneakers -->
    <path d="M180,460 Q160,470 180,480" fill="none" stroke="#4ECDC4" stroke-width="2" opacity="0.5"/>
    <path d="M332,460 Q352,470 332,480" fill="none" stroke="#4ECDC4" stroke-width="2" opacity="0.5"/>
    <!-- Sketchbook Tucked Under Arm -->
    <rect x="310" y="260" width="40" height="60" rx="5" fill="#FF6B6B" stroke="#000000" stroke-width="3"/>
    <!-- Hair (Ponytail Flying Back) -->
    <path d="M256,160 C280,140 320,120 360,140 Q380,154 360,180 C340,200 300,220 256,200 Z" fill="#4ECDC4" stroke="#000000" stroke-width="3"/>
    <!-- Head Outline and Fill -->
    <circle cx="256" cy="160" r="80" fill="#FFD700" stroke="#000000" stroke-width="3"/>
    <!-- Clothing Details (Back of Shirt with Pattern) -->
    <path d="M220,240 L256,220 L292,240" fill="#87CEEB" stroke="#000000" stroke-width="2"/>
    <circle cx="256" cy="260" r="10" fill="#90EE90" stroke="#000000" stroke-width="1"/>
  </g>
</svg>