<svg width="1024" height="768" xmlns="http://www.w3.org/2000/svg" viewBox="0 0 1024 768">

      <defs>
        <linearGradient id="skyGradient" x1="0%" y1="0%" x2="0%" y2="100%">
          <stop offset="0%" style="stop-color:#DDA0DD;stop-opacity:1" />
          <stop offset="100%" style="stop-color:#ffedff;stop-opacity:1" />
        </linearGradient>
        <linearGradient id="groundGradient" x1="0%" y1="0%" x2="0%" y2="100%">
          <stop offset="0%" style="stop-color:#98FB98;stop-opacity:1" />
          <stop offset="100%" style="stop-color:#65c865;stop-opacity:1" />
        </linearGradient>
      </defs>
    <rect x="0" y="0" width="1024" height="500" fill="url(#skyGradient)"/>
<circle cx="850" cy="150" r="70" fill="#FFD700" opacity="0.8"/>
<circle cx="850" cy="150" r="60" fill="#ffff33"/>
<rect x="0" y="500" width="1024" height="268" fill="url(#groundGradient)"/>
<rect x="108" y="450" width="30" height="100" fill="#8B4513" rx="5"/>
<circle cx="123" cy="430" r="50" fill="#4bae4b"/>
<circle cx="88" cy="450" r="45" fill="#4bae4b"/>
<circle cx="158" cy="450" r="45" fill="#4bae4b"/>
<rect x="358" y="450" width="30" height="100" fill="#8B4513" rx="5"/>
<circle cx="373" cy="430" r="50" fill="#4bae4b"/>
<circle cx="338" cy="450" r="45" fill="#4bae4b"/>
<circle cx="408" cy="450" r="45" fill="#4bae4b"/>
<rect x="608" y="450" width="30" height="100" fill="#8B4513" rx="5"/>
<circle cx="623" cy="430" r="50" fill="#4bae4b"/>
<circle cx="588" cy="450" r="45" fill="#4bae4b"/>
<circle cx="658" cy="450" r="45" fill="#4bae4b"/>
<ellipse cx="200" cy="500" rx="50" ry="70" fill="#FF69B4"/>
<circle cx="200" cy="440" r="45" fill="#ff9ce7"/>
<ellipse cx="175" cy="410" rx="15" ry="35" fill="#FF69B4"/>
<ellipse cx="225" cy="410" rx="15" ry="35" fill="#FF69B4"/>
<circle cx="185" cy="435" r="5" fill="#000"/>
<circle cx="215" cy="435" r="5" fill="#000"/>
<circle cx="200" cy="450" r="4" fill="#FF69B4"/>
<path d="M 185 455 Q 200 465 215 455"
                stroke="#000" stroke-width="2" fill="none"/>
<ellipse cx="145" cy="520" rx="12" ry="40" fill="#FF69B4" transform="rotate(-20 145 520)"/>
<ellipse cx="255" cy="520" rx="12" ry="40" fill="#FF69B4" transform="rotate(20 255 520)"/>
<ellipse cx="175" cy="590" rx="15" ry="45" fill="#FF69B4"/>
<ellipse cx="225" cy="590" rx="15" ry="45" fill="#FF69B4"/>
<ellipse cx="0" cy="760" rx="40" ry="15" fill="#65c865" opacity="0.6"/>
<ellipse cx="123" cy="760" rx="40" ry="15" fill="#65c865" opacity="0.6"/>
<ellipse cx="246" cy="760" rx="40" ry="15" fill="#65c865" opacity="0.6"/>
<ellipse cx="319" cy="760" rx="40" ry="15" fill="#65c865" opacity="0.6"/>
<ellipse cx="442" cy="760" rx="40" ry="15" fill="#65c865" opacity="0.6"/>
<ellipse cx="515" cy="760" rx="40" ry="15" fill="#65c865" opacity="0.6"/>
<ellipse cx="638" cy="760" rx="40" ry="15" fill="#65c865" opacity="0.6"/>
<ellipse cx="711" cy="760" rx="40" ry="15" fill="#65c865" opacity="0.6"/>
<ellipse cx="834" cy="760" rx="40" ry="15" fill="#65c865" opacity="0.6"/>
<ellipse cx="907" cy="760" rx="40" ry="15" fill="#65c865" opacity="0.6"/>
</svg>